<?xml version="1.0" encoding="utf-8"?>
<!-- Generator: Adobe Illustrator 16.0.3, SVG Export Plug-In . SVG Version: 6.00 Build 0)  -->
<!DOCTYPE svg PUBLIC "-//W3C//DTD SVG 1.1//EN" "http://www.w3.org/Graphics/SVG/1.1/DTD/svg11.dtd">
<svg version="1.1" id="Capa_2" xmlns="http://www.w3.org/2000/svg" xmlns:xlink="http://www.w3.org/1999/xlink" x="0px" y="0px"
	 width="191.25px" height="178.75px" viewBox="11.5 0 191.25 178.75" enable-background="new 11.5 0 191.25 178.75"
	 xml:space="preserve">
<text transform="matrix(1 0 0 1 23.5 4.5)" font-family="'TimesNewRomanPSMT'" font-size="6">.&amp;&amp;&amp;&amp;&amp;&amp;&amp;&amp;&amp;&amp;&amp;&amp;&amp;&amp;&amp;&amp;&amp;&amp;&amp;&amp;&amp;&amp;&amp;&amp;&amp;&amp;&amp;&amp;&amp;&amp;&amp;&amp;&amp;&amp;&amp;$.</text>
<text transform="matrix(1 0 0 1 14.5 10.625)" font-family="'TimesNewRomanPSMT'" font-size="6">.&amp;&amp;&amp;&amp;&amp;&amp;&amp;&amp;&amp;&amp;&amp;&amp;&amp;&amp;&amp;&amp;&amp;&amp;&amp;&amp;&amp;&amp;&amp;&amp;&amp;&amp;&amp;&amp;&amp;&amp;&amp;&amp;&amp;&amp;&amp;&amp;&amp;&amp;$.</text>
<text transform="matrix(1 0 0 1 11.5 16.625)" font-family="'TimesNewRomanPSMT'" font-size="6">$&amp;&amp;&amp;&amp;&amp;&amp;&amp;&amp;&amp;&amp;&amp;&amp;&amp;&amp;&amp;&amp;&amp;&amp;&amp;&amp;&amp;&amp;&amp;&amp;&amp;&amp;&amp;&amp;&amp;&amp;&amp;&amp;&amp;&amp;&amp;&amp;&amp;&amp;&amp;&amp;$</text>
<text transform="matrix(1 0 0 1 8.875 22.25)" font-family="'TimesNewRomanPSMT'" font-size="6">$&amp;&amp;&amp;&amp;&amp;&amp;&amp;&amp;&amp;&amp;&amp;&amp;&amp;&amp;&amp;&amp;&amp;&amp;&amp;&amp;&amp;&amp;&amp;&amp;&amp;&amp;&amp;&amp;&amp;&amp;&amp;&amp;&amp;&amp;&amp;&amp;&amp;&amp;&amp;&amp;&amp;$</text>
<text transform="matrix(1 0 0 1 6.5 27.875)" font-family="'TimesNewRomanPSMT'" font-size="6">$&amp;&amp;&amp;&amp;&amp;&amp;&amp;&amp;&amp;&amp;&amp;&amp;&amp;&amp;&amp;&amp;&amp;&amp;&amp;&amp;&amp;&amp;&amp;&amp;&amp;&amp;&amp;&amp;&amp;&amp;&amp;&amp;&amp;&amp;&amp;&amp;&amp;&amp;&amp;&amp;&amp;&amp;$</text>
<text transform="matrix(1 0 0 1 5.5 33.25)" font-family="'TimesNewRomanPSMT'" font-size="6">&amp;&amp;&amp;&amp;&amp;&amp;&amp;&amp;&amp;&amp;&amp;&amp;&amp;&amp;&amp;&amp;&amp;&amp;&amp;&amp;&amp;&amp;&amp;&amp;&amp;&amp;&amp;&amp;&amp;&amp;&amp;&amp;&amp;&amp;&amp;&amp;&amp;&amp;&amp;&amp;&amp;&amp;&amp;$</text>
<text transform="matrix(1 0 0 1 5.5 38.75)" font-family="'TimesNewRomanPSMT'" font-size="6">&amp;&amp;&amp;&amp;&amp;&amp;&amp;&amp;&amp;&amp;&amp;&amp;&amp;&amp;&amp;&amp;&amp;&amp;&amp;&amp;&amp;&amp;&amp;&amp;&amp;&amp;&amp;&amp;&amp;&amp;&amp;&amp;&amp;&amp;&amp;&amp;&amp;&amp;&amp;&amp;&amp;&amp;&amp;$</text>
<text transform="matrix(1 0 0 1 5.5 43.875)" font-family="'TimesNewRomanPSMT'" font-size="6">&amp;&amp;&amp;&amp;&amp;&amp;&amp;&amp;&amp;&amp;&amp;&amp;&amp;&amp;&amp;&amp;&amp;&amp;&amp;&amp;&amp;&amp;&amp;&amp;&amp;&amp;&amp;&amp;&amp;&amp;&amp;&amp;&amp;</text>
<text transform="matrix(1 0 0 1 5.5 48.625)" font-family="'TimesNewRomanPSMT'" font-size="6">&amp;&amp;&amp;&amp;&amp;&amp;&amp;&amp;&amp;&amp;&amp;&amp;&amp;&amp;&amp;&amp;&amp;&amp;&amp;&amp;&amp;&amp;&amp;&amp;&amp;&amp;&amp;&amp;&amp;&amp;&amp;&amp;&amp;</text>
<text transform="matrix(1 0 0 1 6.5 159.375)" font-family="'TimesNewRomanPSMT'" font-size="6">$&amp;&amp;&amp;&amp;&amp;&amp;&amp;&amp;&amp;&amp;&amp;&amp;&amp;&amp;&amp;&amp;&amp;&amp;&amp;&amp;&amp;&amp;&amp;&amp;&amp;&amp;&amp;&amp;&amp;&amp;&amp;&amp;&amp;&amp;&amp;&amp;&amp;&amp;&amp;&amp;&amp;&amp;$</text>
<text transform="matrix(1 0 0 1 5.5 143.584)" font-family="'TimesNewRomanPSMT'" font-size="6">&amp;&amp;&amp;&amp;&amp;&amp;&amp;&amp;&amp;&amp;&amp;&amp;&amp;&amp;&amp;&amp;&amp;&amp;&amp;&amp;&amp;&amp;&amp;&amp;&amp;&amp;&amp;&amp;&amp;&amp;&amp;&amp;&amp;&amp;&amp;&amp;&amp;&amp;&amp;&amp;&amp;&amp;&amp;$</text>
<text transform="matrix(1 0 0 1 5.5 149.084)" font-family="'TimesNewRomanPSMT'" font-size="6">&amp;&amp;&amp;&amp;&amp;&amp;&amp;&amp;&amp;&amp;&amp;&amp;&amp;&amp;&amp;&amp;&amp;&amp;&amp;&amp;&amp;&amp;&amp;&amp;&amp;&amp;&amp;&amp;&amp;&amp;&amp;&amp;&amp;&amp;&amp;&amp;&amp;&amp;&amp;&amp;&amp;&amp;&amp;$</text>
<text transform="matrix(1 0 0 1 5.5 154.25)" font-family="'TimesNewRomanPSMT'" font-size="6">&amp;&amp;&amp;&amp;&amp;&amp;&amp;&amp;&amp;&amp;&amp;&amp;&amp;&amp;&amp;&amp;&amp;&amp;&amp;&amp;&amp;&amp;&amp;&amp;&amp;&amp;&amp;&amp;&amp;&amp;&amp;&amp;&amp;&amp;&amp;&amp;&amp;&amp;&amp;&amp;&amp;&amp;&amp;$</text>
<text transform="matrix(1 0 0 1 8.875 164.291)" font-family="'TimesNewRomanPSMT'" font-size="6">$&amp;&amp;&amp;&amp;&amp;&amp;&amp;&amp;&amp;&amp;&amp;&amp;&amp;&amp;&amp;&amp;&amp;&amp;&amp;&amp;&amp;&amp;&amp;&amp;&amp;&amp;&amp;&amp;&amp;&amp;&amp;&amp;&amp;&amp;&amp;&amp;&amp;&amp;&amp;&amp;&amp;$</text>
<text transform="matrix(1 0 0 1 11.5 168.916)" font-family="'TimesNewRomanPSMT'" font-size="6">$&amp;&amp;&amp;&amp;&amp;&amp;&amp;&amp;&amp;&amp;&amp;&amp;&amp;&amp;&amp;&amp;&amp;&amp;&amp;&amp;&amp;&amp;&amp;&amp;&amp;&amp;&amp;&amp;&amp;&amp;&amp;&amp;&amp;&amp;&amp;&amp;&amp;&amp;&amp;&amp;$</text>
<text transform="matrix(1 0 0 1 15.5005 173.791)" font-family="'TimesNewRomanPSMT'" font-size="6">$&amp;&amp;&amp;&amp;&amp;&amp;&amp;&amp;&amp;&amp;&amp;&amp;&amp;&amp;&amp;&amp;&amp;&amp;&amp;&amp;&amp;&amp;&amp;&amp;&amp;&amp;&amp;&amp;&amp;&amp;&amp;&amp;&amp;&amp;&amp;&amp;&amp;&amp;$</text>
<text transform="matrix(1 0 0 1 20.084 178.75)" font-family="'TimesNewRomanPSMT'" font-size="6">$&amp;&amp;&amp;&amp;&amp;&amp;&amp;&amp;&amp;&amp;&amp;&amp;&amp;&amp;&amp;&amp;&amp;&amp;&amp;&amp;&amp;&amp;&amp;&amp;&amp;&amp;&amp;&amp;&amp;&amp;&amp;&amp;&amp;&amp;&amp;&amp;$</text>
<text transform="matrix(1 0 0 1 180.5068 44.25)" font-family="'TimesNewRomanPSMT'" font-size="6">$&amp;&amp;&amp;&amp;&amp;$</text>
<text transform="matrix(1 0 0 1 180.5068 49.334)" font-family="'TimesNewRomanPSMT'" font-size="6">$&amp;&amp;&amp;&amp;&amp;$</text>
<text transform="matrix(1 0 0 1 180.5068 54.75)" font-family="'TimesNewRomanPSMT'" font-size="6">$&amp;&amp;&amp;&amp;&amp;$</text>
<text transform="matrix(1 0 0 1 180.5068 60.417)" font-family="'TimesNewRomanPSMT'" font-size="6">$&amp;&amp;&amp;&amp;&amp;$</text>
<text transform="matrix(1 0 0 1 180.5068 65.833)" font-family="'TimesNewRomanPSMT'" font-size="6">$&amp;&amp;&amp;&amp;&amp;$</text>
<text transform="matrix(1 0 0 1 180.5068 71.166)" font-family="'TimesNewRomanPSMT'" font-size="6">$&amp;&amp;&amp;&amp;&amp;$</text>
<text transform="matrix(1 0 0 1 180.5068 76.75)" font-family="'TimesNewRomanPSMT'" font-size="6">$&amp;&amp;&amp;&amp;&amp;$</text>
<text transform="matrix(1 0 0 1 180.5068 82.334)" font-family="'TimesNewRomanPSMT'" font-size="6">$&amp;&amp;&amp;&amp;&amp;$</text>
<text transform="matrix(1 0 0 1 180.5068 87.916)" font-family="'TimesNewRomanPSMT'" font-size="6">$&amp;&amp;&amp;&amp;&amp;$</text>
<text transform="matrix(1 0 0 1 180.5068 93.667)" font-family="'TimesNewRomanPSMT'" font-size="6">$&amp;&amp;&amp;&amp;&amp;$</text>
<text transform="matrix(1 0 0 1 180.5068 99.583)" font-family="'TimesNewRomanPSMT'" font-size="6">$&amp;&amp;&amp;&amp;&amp;$</text>
<text transform="matrix(1 0 0 1 180.5068 105.584)" font-family="'TimesNewRomanPSMT'" font-size="6">$&amp;&amp;&amp;&amp;&amp;$</text>
<text transform="matrix(1 0 0 1 180.5068 111.166)" font-family="'TimesNewRomanPSMT'" font-size="6">$&amp;&amp;&amp;&amp;&amp;$</text>
<text transform="matrix(1 0 0 1 180.5068 117)" font-family="'TimesNewRomanPSMT'" font-size="6">$&amp;&amp;&amp;&amp;&amp;$</text>
<text transform="matrix(1 0 0 1 180.5068 122.584)" font-family="'TimesNewRomanPSMT'" font-size="6">$&amp;&amp;&amp;&amp;&amp;$</text>
<text transform="matrix(1 0 0 1 180.5068 128.416)" font-family="'TimesNewRomanPSMT'" font-size="6">$&amp;&amp;&amp;&amp;&amp;$</text>
<text transform="matrix(1 0 0 1 180.5068 134.083)" font-family="'TimesNewRomanPSMT'" font-size="6">$&amp;&amp;&amp;&amp;&amp;$</text>
<text transform="matrix(1 0 0 1 171.8398 138.584)" font-family="'TimesNewRomanPSMT'" font-size="6">.-+&amp;&amp;&amp;&amp;&amp;&amp;$</text>
<text transform="matrix(1 0 0 1 5.5 54)" font-family="'TimesNewRomanPSMT'" font-size="6">&amp;&amp;&amp;&amp;&amp;&amp;$</text>
<text transform="matrix(1 0 0 1 5.5 59.5)" font-family="'TimesNewRomanPSMT'" font-size="6">&amp;&amp;&amp;&amp;&amp;&amp;&amp;:</text>
<text transform="matrix(1 0 0 1 5.5 65.0137)" font-family="'TimesNewRomanPSMT'" font-size="6">&amp;&amp;&amp;&amp;&amp;&amp;&amp;&amp;</text>
<text transform="matrix(1 0 0 1 5.5 71.0137)" font-family="'TimesNewRomanPSMT'" font-size="6">&amp;&amp;&amp;&amp;&amp;&amp;&amp;&amp;$</text>
<text transform="matrix(1 0 0 1 5.5 76.75)" font-family="'TimesNewRomanPSMT'" font-size="6">&amp;&amp;&amp;&amp;&amp;&amp;&amp;&amp;$$.</text>
<text transform="matrix(1 0 0 1 5.5 82.333)" font-family="'TimesNewRomanPSMT'" font-size="6">&amp;&amp;&amp;&amp;&amp;&amp;&amp;&amp;&amp;&amp;.</text>
<text transform="matrix(1 0 0 1 5.5 87.916)" font-family="'TimesNewRomanPSMT'" font-size="6">&amp;&amp;&amp;&amp;&amp;&amp;&amp;&amp;&amp;&amp;&amp;</text>
<text transform="matrix(1 0 0 1 5.5 93)" font-family="'TimesNewRomanPSMT'" font-size="6">&amp;&amp;&amp;&amp;&amp;&amp;&amp;&amp;&amp;&amp;$$.</text>
<text transform="matrix(1 0 0 1 5.5 98.75)" font-family="'TimesNewRomanPSMT'" font-size="6">&amp;&amp;&amp;&amp;&amp;&amp;&amp;&amp;&amp;&amp;$$</text>
<text transform="matrix(1 0 0 1 5.5 103.75)" font-family="'TimesNewRomanPSMT'" font-size="6">&amp;&amp;&amp;&amp;&amp;&amp;&amp;&amp;&amp;&amp;$</text>
<text transform="matrix(1 0 0 1 5.5 108.875)" font-family="'TimesNewRomanPSMT'" font-size="6">&amp;&amp;&amp;&amp;&amp;&amp;&amp;&amp;&amp;&amp;</text>
<text transform="matrix(1 0 0 1 5.5 114.25)" font-family="'TimesNewRomanPSMT'" font-size="6">&amp;&amp;&amp;&amp;&amp;&amp;&amp;&amp;&amp;!</text>
<text transform="matrix(1 0 0 1 5.5 119.625)" font-family="'TimesNewRomanPSMT'" font-size="6">&amp;&amp;&amp;&amp;&amp;&amp;&amp;&amp;$</text>
<text transform="matrix(1 0 0 1 5.5 125.875)" font-family="'TimesNewRomanPSMT'" font-size="6">&amp;&amp;&amp;&amp;&amp;&amp;&amp;&amp;</text>
<text transform="matrix(1 0 0 1 5.5 131.875)" font-family="'TimesNewRomanPSMT'" font-size="6">&amp;&amp;&amp;&amp;&amp;&amp;&amp;</text>
<text transform="matrix(1 0 0 1 5.5 138)" font-family="'TimesNewRomanPSMT'" font-size="6">&amp;&amp;&amp;&amp;&amp;&amp;</text>
<text transform="matrix(1 0 0 1 58.375 138)" font-family="'TimesNewRomanPSMT'" font-size="6">&amp;&amp;&amp;&amp;&amp;&amp;$</text>
<text transform="matrix(1 0 0 1 61.75 131.875)" font-family="'TimesNewRomanPSMT'" font-size="6">&amp;&amp;&amp;&amp;&amp;$</text>
<text transform="matrix(1 0 0 1 64.75 125.875)" font-family="'TimesNewRomanPSMT'" font-size="6">&amp;&amp;&amp;&amp;</text>
<text transform="matrix(1 0 0 1 68 120.375)" font-family="'TimesNewRomanPSMT'" font-size="6">&amp;&amp;&amp;</text>
<text transform="matrix(1 0 0 1 70 115.625)" font-family="'TimesNewRomanPSMT'" font-size="6">&amp;&amp;</text>
<text transform="matrix(1 0 0 1 72.25 111.166)" font-family="'TimesNewRomanPSMT'" font-size="6">&amp;</text>
<text transform="matrix(1 0 0 1 60.125 54)" font-family="'TimesNewRomanPSMT'" font-size="6">&amp;&amp;&amp;&amp;&amp;&amp;+</text>
<text transform="matrix(1 0 0 1 63.5 59.5)" font-family="'TimesNewRomanPSMT'" font-size="6">&amp;&amp;&amp;&amp;&amp;”</text>
<text transform="matrix(1 0 0 1 66.75 65.0137)" font-family="'TimesNewRomanPSMT'" font-size="6">&amp;&amp;&amp;&amp;</text>
<text transform="matrix(1 0 0 1 69.5 71.0137)" font-family="'TimesNewRomanPSMT'" font-size="6">&amp;&amp;$</text>
<text transform="matrix(1 0 0 1 72.875 76.75)" font-family="'TimesNewRomanPSMT'" font-size="6">&amp;”</text>
<text transform="matrix(1 0 0 1 74.125 82.333)" font-family="'TimesNewRomanPSMT'" font-size="6">”</text>
<text transform="matrix(1 0 0 1 113 54)" font-family="'TimesNewRomanPSMT'" font-size="6">&amp;&amp;&amp;&amp;&amp;&amp;&amp;&amp;&amp;&amp;</text>
<text transform="matrix(1 0 0 1 110 59.5)" font-family="'TimesNewRomanPSMT'" font-size="6">&amp;&amp;&amp;&amp;&amp;&amp;&amp;&amp;&amp;&amp;$</text>
<text transform="matrix(1 0 0 1 105.5 65.0137)" font-family="'TimesNewRomanPSMT'" font-size="6">&amp;&amp;&amp;&amp;&amp;&amp;&amp;&amp;&amp;&amp;&amp;$</text>
<text transform="matrix(1 0 0 1 103.5 70.2637)" font-family="'TimesNewRomanPSMT'" font-size="6">&amp;&amp;&amp;&amp;&amp;&amp;&amp;&amp;=””””””</text>
<text transform="matrix(1 0 0 1 99.25 75.6387)" font-family="'TimesNewRomanPSMT'" font-size="6">&amp;&amp;&amp;&amp;&amp;&amp;&amp;”</text>
<text transform="matrix(1 0 0 1 95.875 81.5137)" font-family="'TimesNewRomanPSMT'" font-size="6">&amp;&amp;&amp;&amp;&amp;&amp;”</text>
<text transform="matrix(1 0 0 1 92.375 87.3887)" font-family="'TimesNewRomanPSMT'" font-size="6">&amp;&amp;&amp;&amp;&amp;&amp;”</text>
<text transform="matrix(1 0 0 1 89 93)" font-family="'TimesNewRomanPSMT'" font-size="6">&amp;&amp;&amp;&amp;&amp;&amp;”</text>
<text transform="matrix(1 0 0 1 92.375 98.75)" font-family="'TimesNewRomanPSMT'" font-size="6">$&amp;&amp;&amp;&amp;”</text>
<text transform="matrix(1 0 0 1 94.5 103.75)" font-family="'TimesNewRomanPSMT'" font-size="6">$&amp;&amp;&amp;&amp;</text>
<text transform="matrix(1 0 0 1 98.875 108.875)" font-family="'TimesNewRomanPSMT'" font-size="6">$&amp;&amp;&amp;</text>
<text transform="matrix(1 0 0 1 101.375 114.625)" font-family="'TimesNewRomanPSMT'" font-size="6">$&amp;&amp;$</text>
<text transform="matrix(1 0 0 1 105.5 120.375)" font-family="'TimesNewRomanPSMT'" font-size="6">$&amp;&amp;</text>
<text transform="matrix(1 0 0 1 108.625 125.875)" font-family="'TimesNewRomanPSMT'" font-size="6">$&amp;&amp;</text>
<text transform="matrix(1 0 0 1 112.125 131.875)" font-family="'TimesNewRomanPSMT'" font-size="6">$&amp;&amp;</text>
<text transform="matrix(1 0 0 1 115.625 138)" font-family="'TimesNewRomanPSMT'" font-size="6">$&amp;&amp;$</text>
<text transform="matrix(1 0 0 1 145 90.5)" font-family="'TimesNewRomanPSMT'" font-size="6">.&amp;&amp;&amp;</text>
<text transform="matrix(1 0 0 1 143.5 122)" font-family="'TimesNewRomanPSMT'" font-size="6">“&amp;&amp;&amp;</text>
<text transform="matrix(1 0 0 1 140.25 117)" font-family="'TimesNewRomanPSMT'" font-size="6">$$&amp;&amp;&amp;</text>
<text transform="matrix(1 0 0 1 138.125 96.125)" font-family="'TimesNewRomanPSMT'" font-size="6">+&amp;&amp;&amp;&amp;</text>
<text transform="matrix(1 0 0 1 138.125 112.125)" font-family="'TimesNewRomanPSMT'" font-size="6">+&amp;&amp;&amp;&amp;</text>
<text transform="matrix(1 0 0 1 137.125 101.375)" font-family="'TimesNewRomanPSMT'" font-size="6">&amp;&amp;&amp;&amp;&amp;</text>
<text transform="matrix(1 0 0 1 137.125 106.625)" font-family="'TimesNewRomanPSMT'" font-size="6">&amp;&amp;&amp;&amp;&amp;</text>
</svg>
