<?xml version="1.0" encoding="utf-8"?>
<!-- Generator: Adobe Illustrator 16.0.3, SVG Export Plug-In . SVG Version: 6.00 Build 0)  -->
<!DOCTYPE svg PUBLIC "-//W3C//DTD SVG 1.1//EN" "http://www.w3.org/Graphics/SVG/1.1/DTD/svg11.dtd">
<svg version="1.1" id="Capa_2" xmlns="http://www.w3.org/2000/svg" xmlns:xlink="http://www.w3.org/1999/xlink" x="0px" y="0px"
	 width="585px" height="563px" viewBox="0 0 585 563" enable-background="new 0 0 585 563" xml:space="preserve">
<text transform="matrix(1 0 0 1 64.9995 166.667)" font-family="'TimesNewRomanPSMT'" font-size="12">$$$$$$$$$$$$$$$$$$$$$$$$$$$$$$$$$$$$$$$$$$$$$$$$$$$$$$$$$$$$$$$$$$$$$$$$$$$</text>
<text transform="matrix(1 0 0 1 58.9995 178.167)" font-family="'TimesNewRomanPSMT'" font-size="12">$$$$$$$$$$$$$$$$$$$$!”</text>
<text transform="matrix(1 0 0 1 53.4995 188.667)" font-family="'TimesNewRomanPSMT'" font-size="12">$$$$$$$$$$$$$$$$$$$$$!</text>
<text transform="matrix(1 0 0 1 50.2495 198.417)" font-family="'TimesNewRomanPSMT'" font-size="12">$$$$$$$$$$$$$$$$$$$$$$</text>
<text transform="matrix(1 0 0 1 44.7495 208.167)" font-family="'TimesNewRomanPSMT'" font-size="12">$$$$$$$$$$$$$$$$$$$$$$$</text>
<text transform="matrix(1 0 0 1 41.7495 218.667)" font-family="'TimesNewRomanPSMT'" font-size="12">$$$$$$$$$$$$$$$$$$$$$$$!</text>
<text transform="matrix(1 0 0 1 39.7495 229.167)" font-family="'TimesNewRomanPSMT'" font-size="12">$$$$$$$$$$$$$$$$$$$$$$$$</text>
<text transform="matrix(1 0 0 1 36.4995 239.917)" font-family="'TimesNewRomanPSMT'" font-size="12">$$$$$$$$$$$$$$$$$$$$$$&amp;$</text>
<text transform="matrix(1 0 0 1 35.4995 250.917)" font-family="'TimesNewRomanPSMT'" font-size="12">$$$$$$$$$$$$$$$$$$$$$$&amp;$</text>
<text transform="matrix(1 0 0 1 35.2495 262.167)" font-family="'TimesNewRomanPSMT'" font-size="12">$$$$$$$$$$$$$$$$$$$$$$$!$</text>
<text transform="matrix(1 0 0 1 35.4995 303.667)" font-family="'TimesNewRomanPSMT'" font-size="12">$$$$$$$$$$$$$$$$$$$$$$$!$</text>
<text transform="matrix(1 0 0 1 37.9995 325.417)" font-family="'TimesNewRomanPSMT'" font-size="12">$$$$$$$$$$$$$$$$$$$$$$$$</text>
<text transform="matrix(1 0 0 1 40.7495 336.167)" font-family="'TimesNewRomanPSMT'" font-size="12">$$$$$$$$$$$$$$$$$$$$$$!$</text>
<text transform="matrix(1 0 0 1 42.4995 346.917)" font-family="'TimesNewRomanPSMT'" font-size="12">$$$$$$$$$$$$$$&amp;$$$$$$$$</text>
<text transform="matrix(1 0 0 1 44.7495 357.417)" font-family="'TimesNewRomanPSMT'" font-size="12">$$$$$$$$$$$$$$$$$$$$$$$</text>
<text transform="matrix(1 0 0 1 48.7495 367.667)" font-family="'TimesNewRomanPSMT'" font-size="12">$$$$$$$$$$$$$$$$$$$&amp;$$</text>
<text transform="matrix(1 0 0 1 51.4995 378.417)" font-family="'TimesNewRomanPSMT'" font-size="12">$$$$$$$$$$$$$$$$$$$$$$</text>
<text transform="matrix(1 0 0 1 55.9995 389.167)" font-family="'TimesNewRomanPSMT'" font-size="12">$$$$$$$$$$$$$!$$$$$&amp;$</text>
<text transform="matrix(1 0 0 1 61.7495 399.417)" font-family="'TimesNewRomanPSMT'" font-size="12">$$$$$$$$$$$$$!$$$$&amp;$</text>
<text transform="matrix(1 0 0 1 67.9995 409.417)" font-family="'TimesNewRomanPSMT'" font-size="12">$$$$$$$$$$$$$!$$$&amp;$</text>
<text transform="matrix(1 0 0 1 73.9995 419.417)" font-family="'TimesNewRomanPSMT'" font-size="12">$$$$$$$$$$$$$!$$&amp;$.</text>
<text transform="matrix(1 0 0 1 80.4995 429.167)" font-family="'TimesNewRomanPSMT'" font-size="12">$$$$$$$$$$$$$$$$$$$$$$$$$$$$$$$$$$$$$$$$$$$$</text>
<text transform="matrix(1 0 0 1 87.7495 438.667)" font-family="'TimesNewRomanPSMT'" font-size="12">$$$$$$$$$$$$$$$$$$$$$$$$$$$$$$$$$$$$$$$$$$$$</text>
<text transform="matrix(1 0 0 1 94.9995 448.667)" font-family="'TimesNewRomanPSMT'" font-size="12">$$$$$$$$$$$$$$$$$$$$$$$$$$$$$$$$$$$$$$$$$$$$</text>
<text transform="matrix(1 0 0 1 99.9995 458.167)" font-family="'TimesNewRomanPSMT'" font-size="12">“$$$$$$$$$$$$$$$$$$$$$$$$$$$$$$$$$$$$$$$$$$&amp;</text>
<text transform="matrix(1 0 0 1 111.4995 468.167)" font-family="'TimesNewRomanPSMT'" font-size="12">“$$$$$$$$$$$$$$$$$$$$$$$$$$$$$$$$$$$$$$$$$&amp;</text>
<text transform="matrix(1 0 0 1 120.9995 478.167)" font-family="'TimesNewRomanPSMT'" font-size="12">“$$$$$$$$$$$$$$$$$$$$$$$$$$$$$$$$$$$$$$$$$$</text>
<text transform="matrix(1 0 0 1 133.7495 487.917)" font-family="'TimesNewRomanPSMT'" font-size="12">“$$$$$$$$$$$$$$$$$$$$$$$$$$$$$$$$$$$$$$$$$</text>
<text transform="matrix(1 0 0 1 145.7495 497.417)" font-family="'TimesNewRomanPSMT'" font-size="12">”$$$$$$$$$$$$$$$$$$$$$$$$$$$$$$$$$$$$$$$$</text>
<text transform="matrix(1 0 0 1 158.7495 507.167)" font-family="'TimesNewRomanPSMT'" font-size="12">“”$$$$$$$$$$$$$$$$$$$$$$$$$$$$$$$$$$$$$$</text>
<text transform="matrix(1 0 0 1 178.2495 516.667)" font-family="'TimesNewRomanPSMT'" font-size="12">“”$$$$$$$$$$$$$$$$$$$$$$$$$$$$$$$$$$””</text>
<text transform="matrix(1 0 0 1 202.2495 526.167)" font-family="'TimesNewRomanPSMT'" font-size="12">“”+$$$$$$$$$$$$$$$$$$$$$$$$+””</text>
<text transform="matrix(1 0 0 1 235.2495 535.667)" font-family="'TimesNewRomanPSMT'" font-size="12">““”+$$$$$$$$$$$+”””</text>
<text transform="matrix(1 0 0 1 36.4995 313.667)" font-family="'TimesNewRomanPSMT'" font-size="12">$$$$$$$$$$$$$$$$$$$$$$&amp;$</text>
<text transform="matrix(1 0 0 1 35.4995 293.417)" font-family="'TimesNewRomanPSMT'" font-size="12">$$$$$$$$$$$$$$$$$$$$$$$!$</text>
<text transform="matrix(1 0 0 1 35.4995 283.417)" font-family="'TimesNewRomanPSMT'" font-size="12">$$$$$$$$$$$$$$$$$$$$$$$!$</text>
<text transform="matrix(1 0 0 1 35.4995 273.167)" font-family="'TimesNewRomanPSMT'" font-size="12">$$$$$$$$$$$$$$$$$$$$$$$!$</text>
<text transform="matrix(1 0 0 1 70.0034 155.333)" font-family="'TimesNewRomanPSMT'" font-size="12">-$$$$$$$$$$$$$$$$$$$$$$$$$$$$$$$$$$$$$$$$$$$$$$$$$$$$$$$$$$$$$$$$$$$$$$$$-</text>
<text transform="matrix(1 0 0 1 76.0034 143.667)" font-family="'TimesNewRomanPSMT'" font-size="12">-$$$$$$$$$$$$$$$$$$$$$$$$$$$$$$$$$$$$$$$$$$$$$$$$$$$$$$$$$$$$$$$$$$$$$$-</text>
<text transform="matrix(1 0 0 1 82.0034 133.667)" font-family="'TimesNewRomanPSMT'" font-size="12">-$$$$$$$$$$$$$$$$$$$$$$$$$$$$$$$$$$$$$$$$$$$$$$$$$$$$$$$$$$$$$$$$$$$$-</text>
<text transform="matrix(1 0 0 1 91.0034 122.667)" font-family="'TimesNewRomanPSMT'" font-size="12">-$$$$$$$$$$$$$$$$$$$$$$$$$$$$$$$$$$$$$$$$$$$$$$$$$$$$$$$$$$$$$$$$$-</text>
<text transform="matrix(1 0 0 1 101.0034 111.667)" font-family="'TimesNewRomanPSMT'" font-size="12">-$$$$$$$$$$$$$$$$$$$$$$$$$$$$$$$$$$$$$$$$$$$$$$$$$$$$$$$$$$$$$$-</text>
<text transform="matrix(1 0 0 1 112.0034 101.001)" font-family="'TimesNewRomanPSMT'" font-size="12">-$$$$$$$$$$$$$$$$$$$$$$$$$$$$$$$$$$$$$$$$$$$$$$$$$$$$$$$$$$-</text>
<text transform="matrix(1 0 0 1 124.0034 89.667)" font-family="'TimesNewRomanPSMT'" font-size="12">-$$$$$$$$$$$$$$$$$$$$$$$$$$$$$$$$$$$$$$$$$$$$$$$$$$$$$$-</text>
<text transform="matrix(1 0 0 1 139.0034 78.333)" font-family="'TimesNewRomanPSMT'" font-size="12">-$$$$$$$$$$$$$$$$$$$$$$$$$$$$$$$$$$$$$$$$$$$$$$$$$-</text>
<text transform="matrix(1 0 0 1 157.0034 67.333)" font-family="'TimesNewRomanPSMT'" font-size="12">-$$$$$$$$$$$$$$$$$$$$$$$$$$$$$$$$$$$$$$$$$$$-</text>
<text transform="matrix(1 0 0 1 175.0034 57.333)" font-family="'TimesNewRomanPSMT'" font-size="12">-$$$$$$$$$$$$$$$$$$$$$$$$$$$$$$$$$$$$$-</text>
<text transform="matrix(1 0 0 1 197.0112 46.333)" font-family="'TimesNewRomanPSMT'" font-size="12">---$$$$$$$$$$$$$$$$$$$$$$$$$$$---</text>
<text transform="matrix(1 0 0 1 233.0112 35.667)" font-family="'TimesNewRomanPSMT'" font-size="12">---$$$$$$$$$$$$$$$---</text>
<text transform="matrix(1 0 0 1 211.75 177)" font-family="'TimesNewRomanPSMT'" font-size="12">“$$$$$$$$$$$$$$$$$$$$$$$$</text>
<text transform="matrix(1 0 0 1 396.25 177)" font-family="'TimesNewRomanPSMT'" font-size="12">$$$$$$$$$$$$$$$$$$$$$</text>
<text transform="matrix(1 0 0 1 396.25 186.667)" font-family="'TimesNewRomanPSMT'" font-size="12">$$$$$$$$$$$$$$$$$$$$$$</text>
<text transform="matrix(1 0 0 1 396.25 197.417)" font-family="'TimesNewRomanPSMT'" font-size="12">$$$$$$$$$$$$$$$$$$$$&amp;$</text>
<text transform="matrix(1 0 0 1 397.25 208.167)" font-family="'TimesNewRomanPSMT'" font-size="12">$$$$$$$$$$$$$$$$$$$$$!$</text>
<text transform="matrix(1 0 0 1 397.25 218.667)" font-family="'TimesNewRomanPSMT'" font-size="12">$$$$$$$$$$$$$$$$$$$$$&amp;$</text>
<text transform="matrix(1 0 0 1 397.25 229.167)" font-family="'TimesNewRomanPSMT'" font-size="12">$$$$$$$$$$$$$$$$$$$$$$!$</text>
<text transform="matrix(1 0 0 1 397.25 239.917)" font-family="'TimesNewRomanPSMT'" font-size="12">$$$$$$$$$$$$$$$$$$$$$$$$</text>
<text transform="matrix(1 0 0 1 397.25 250.917)" font-family="'TimesNewRomanPSMT'" font-size="12">$$$$$$$$$$$$$$$$$$$$$$$!$</text>
<text transform="matrix(1 0 0 1 397.25 262.167)" font-family="'TimesNewRomanPSMT'" font-size="12">$$$$$$$$$$$$$$$$$$$$$$&amp;$</text>
<text transform="matrix(1 0 0 1 397.25 273.167)" font-family="'TimesNewRomanPSMT'" font-size="12">$$$$$$$$$$$$$$$$$$$$$$$$$</text>
<text transform="matrix(1 0 0 1 397.25 283.0703)" font-family="'TimesNewRomanPSMT'" font-size="12">$$$$$$$$$$$$$$$$$$$$$$$$$</text>
<text transform="matrix(1 0 0 1 397.25 293.417)" font-family="'TimesNewRomanPSMT'" font-size="12">$$$$$$$$$$$$$$$$$$$$$$$$$</text>
<text transform="matrix(1 0 0 1 397.25 303.667)" font-family="'TimesNewRomanPSMT'" font-size="12">$$$$$$$$$$$$$$$$$$$&amp;$$$$</text>
<text transform="matrix(1 0 0 1 397.25 314.667)" font-family="'TimesNewRomanPSMT'" font-size="12">$$$$$$$$$$$$$$$$$$$$$$$!$</text>
<text transform="matrix(1 0 0 1 397.25 325.417)" font-family="'TimesNewRomanPSMT'" font-size="12">$$$$$$$$$$$$$$$$$$$$$$&amp;$</text>
<text transform="matrix(1 0 0 1 397.25 337.167)" font-family="'TimesNewRomanPSMT'" font-size="12">$$$$$$$$$$$$$$$$$$$$$$$$</text>
<text transform="matrix(1 0 0 1 397.25 348.917)" font-family="'TimesNewRomanPSMT'" font-size="12">$$$$$$$$$$$$$$$$$$$$$$!$</text>
<text transform="matrix(1 0 0 1 397.25 359.417)" font-family="'TimesNewRomanPSMT'" font-size="12">$$$$$$$$$$$$$$$$$$$$$$$</text>
<text transform="matrix(1 0 0 1 397.25 369.667)" font-family="'TimesNewRomanPSMT'" font-size="12">$$$$$$$$$$$$$$$$$$$$$$”</text>
<text transform="matrix(1 0 0 1 397.25 381)" font-family="'TimesNewRomanPSMT'" font-size="12">$$$$$$$$$$$$$$$$$$$$$”</text>
<text transform="matrix(1 0 0 1 228.75 198.417)" font-family="'TimesNewRomanPSMT'" font-size="12">“$$$$$$$$$$$$$$$$$$$$$</text>
<text transform="matrix(1 0 0 1 235.25 209.167)" font-family="'TimesNewRomanPSMT'" font-size="12">“$$$$$$$$$$$$$$$$$$$$</text>
<text transform="matrix(1 0 0 1 242 218.667)" font-family="'TimesNewRomanPSMT'" font-size="12">“$$$$$$$$$$$$$$$$$$$</text>
<text transform="matrix(1 0 0 1 249.75 229.167)" font-family="'TimesNewRomanPSMT'" font-size="12">“$$$$$$$$$$$$$$$!$$</text>
<text transform="matrix(1 0 0 1 265.25 250.917)" font-family="'TimesNewRomanPSMT'" font-size="12">“$$$$$$$$$$$$$$$</text>
<text transform="matrix(1 0 0 1 271.75 260.667)" font-family="'TimesNewRomanPSMT'" font-size="12">“$$$$$$$$$$$$$$</text>
<text transform="matrix(1 0 0 1 278 271.167)" font-family="'TimesNewRomanPSMT'" font-size="12">“$$$$$$$$$$$$$</text>
<text transform="matrix(1 0 0 1 290 291.25)" font-family="'TimesNewRomanPSMT'" font-size="12">“$$$$$$$$$$$</text>
<text transform="matrix(0.9644 0 0 1 297.25 301)" font-family="'TimesNewRomanPSMT'" font-size="12">“$$$$$$$$$$</text>
<text transform="matrix(0.9644 0 0 1 303.25 310.75)" font-family="'TimesNewRomanPSMT'" font-size="12">“$$$$$$$$$</text>
<text transform="matrix(0.9644 0 0 1 309.75 320.75)" font-family="'TimesNewRomanPSMT'" font-size="12">“$$$$$$$$</text>
<text transform="matrix(0.9644 0 0 1 316 330.75)" font-family="'TimesNewRomanPSMT'" font-size="12">“$$$$$$$</text>
<text transform="matrix(0.9644 0 0 1 323.25 340.5)" font-family="'TimesNewRomanPSMT'" font-size="12">“$$$$!$&amp;</text>
<text transform="matrix(0.9644 0 0 1 329.25 350)" font-family="'TimesNewRomanPSMT'" font-size="12">“$$$$!$&amp;</text>
<text transform="matrix(0.9644 0 0 1 336 360.5)" font-family="'TimesNewRomanPSMT'" font-size="12">“$$$$!$&amp;</text>
<text transform="matrix(0.9644 0 0 1 342 370.75)" font-family="'TimesNewRomanPSMT'" font-size="12">“$$$$!$&amp;</text>
<text transform="matrix(0.9644 0 0 1 349.25 381)" font-family="'TimesNewRomanPSMT'" font-size="12">“$$$$!$&amp;</text>
<text transform="matrix(0.9644 0 0 1 358 391.25)" font-family="'TimesNewRomanPSMT'" font-size="12">“$$$$$$$$$$$$$$$$$$$$$$$$$$$”</text>
<text transform="matrix(0.9644 0 0 1 363.75 401.25)" font-family="'TimesNewRomanPSMT'" font-size="12">“$$$$$$$$$$$$$$$$$$$$$$$$$”</text>
<text transform="matrix(0.9644 0 0 1 370.25 412)" font-family="'TimesNewRomanPSMT'" font-size="12">“$$$$$$$$$$$$$$$$$$$$$$$”</text>
<text transform="matrix(0.9644 0 0 1 376.5 421.75)" font-family="'TimesNewRomanPSMT'" font-size="12">“$$$$$$$$$$$$$$$$$$$$$”</text>
<text transform="matrix(0.9966 0 0 1 383.5 431.7715)" font-family="'TimesNewRomanPSMT'" font-size="12">“$$$$$$$$$$$$$$$$$$”</text>
<text transform="matrix(0.9798 0 0 1 389.75 441.5381)" font-family="'TimesNewRomanPSMT'" font-size="12">“$$$$$$$$$$$$$$$$”</text>
<text transform="matrix(0.9798 0 0 1 397.25 451.5381)" font-family="'TimesNewRomanPSMT'" font-size="12">“$$$$$$$$$$$$$”</text>
<text transform="matrix(0.9798 0 0 1 402.5 461.2881)" font-family="'TimesNewRomanPSMT'" font-size="12">“$$$$$$$$$$$”</text>
<text transform="matrix(0.9798 0 0 1 409.75 471.5381)" font-family="'TimesNewRomanPSMT'" font-size="12">“$$$$$$$$”</text>
<text transform="matrix(0.9798 0 0 1 416.25 482.0381)" font-family="'TimesNewRomanPSMT'" font-size="12">“$$$$$”</text>
<text transform="matrix(1 0 0 1 283.75 281)" font-family="'TimesNewRomanPSMT'" font-size="12">“$$$$$$$$$$$$</text>
<text transform="matrix(1 0 0 1 256.25 239.917)" font-family="'TimesNewRomanPSMT'" font-size="12">“$$$$$$$$$$$$$$$!$</text>
<text transform="matrix(1 0 0 1 222.25 186.667)" font-family="'TimesNewRomanPSMT'" font-size="12">“$$$$$$$$$$$$$$$$$$$$$$</text>
<text transform="matrix(0.9644 0 0 1 424.5 491.7773)" font-family="'TimesNewRomanPSMT'" font-size="12">“$”</text>
<text transform="matrix(-1 0 0 1 228 254.25)" font-family="'TimesNewRomanPSMT'" font-size="12">&amp;</text>
<text transform="matrix(-1 0 0 1 231.75 265)" font-family="'TimesNewRomanPSMT'" font-size="12">$$</text>
<text transform="matrix(-1 0 0 1 242.4961 275.75)" font-family="'TimesNewRomanPSMT'" font-size="12">-$$$</text>
<text transform="matrix(-1 0 0 1 248.4961 286.5)" font-family="'TimesNewRomanPSMT'" font-size="12">-$$$$</text>
<text transform="matrix(-1 0 0 1 254.4961 298)" font-family="'TimesNewRomanPSMT'" font-size="12">-$$$$$</text>
<text transform="matrix(-1 0 0 1 262.25 309)" font-family="'TimesNewRomanPSMT'" font-size="12">$$$$$$$</text>
<text transform="matrix(-1 0 0 1 272.4961 320.75)" font-family="'TimesNewRomanPSMT'" font-size="12">-$$$$$$$$</text>
<text transform="matrix(-1 0 0 1 281.5801 331.75)" font-family="'TimesNewRomanPSMT'" font-size="12">&amp;$$!$$$$$$</text>
<text transform="matrix(-1 0 0 1 289.834 342.5)" font-family="'TimesNewRomanPSMT'" font-size="12">&amp;$$$$$$$$$$</text>
<text transform="matrix(-1 0 0 1 295.584 353.25)" font-family="'TimesNewRomanPSMT'" font-size="12">&amp;$$$$$$$$$$$</text>
<text transform="matrix(-1 0 0 1 301.584 364.25)" font-family="'TimesNewRomanPSMT'" font-size="12">&amp;$$$$$$$$$$$$</text>
<text transform="matrix(-1 0 0 1 307.834 374.25)" font-family="'TimesNewRomanPSMT'" font-size="12">&amp;$$$$$$$$$$$$$</text>
<text transform="matrix(-1 0 0 1 313.834 384.75)" font-family="'TimesNewRomanPSMT'" font-size="12">&amp;$$$$$$$$$$$$$$</text>
<text transform="matrix(-1 0 0 1 322.25 396.5)" font-family="'TimesNewRomanPSMT'" font-size="12">$$$$$$$$$$$$$$$$$</text>
<text transform="matrix(-1 0 0 1 328.5 407.25)" font-family="'TimesNewRomanPSMT'" font-size="12">$$$$$$$$$$$$$$$$$$</text>
<text transform="matrix(-1 0 0 1 334.25 418)" font-family="'TimesNewRomanPSMT'" font-size="12">$$$$$$$$$$$$$$$$$$$</text>
</svg>
