<?xml version="1.0" encoding="utf-8"?>
<!-- Generator: Adobe Illustrator 16.0.3, SVG Export Plug-In . SVG Version: 6.00 Build 0)  -->
<!DOCTYPE svg PUBLIC "-//W3C//DTD SVG 1.1//EN" "http://www.w3.org/Graphics/SVG/1.1/DTD/svg11.dtd">
<svg version="1.1" id="Capa_1" xmlns="http://www.w3.org/2000/svg" xmlns:xlink="http://www.w3.org/1999/xlink" x="0px" y="0px"
	 width="20px" height="20.014px" viewBox="0 0 20 20.014" enable-background="new 0 0 20 20.014" xml:space="preserve">
<g>
	<path fill-rule="evenodd" clip-rule="evenodd" fill="#2A2A72" d="M0,10.035c0.021-2.31,0.721-4.389,2.149-6.207
		c1.329-1.692,3.038-2.836,5.103-3.442c0.477-0.14,0.963-0.235,1.456-0.3c0.553-0.073,1.108-0.1,1.665-0.078
		c1.767,0.072,3.41,0.562,4.906,1.509c2.135,1.352,3.566,3.246,4.307,5.661c0.146,0.477,0.245,0.965,0.315,1.459
		c0.085,0.594,0.114,1.19,0.092,1.788c-0.049,1.271-0.323,2.491-0.836,3.656c-0.589,1.338-1.427,2.494-2.518,3.467
		c-1.203,1.073-2.586,1.813-4.146,2.22c-0.436,0.114-0.878,0.192-1.326,0.246c-0.517,0.063-1.035,0.083-1.554,0.063
		c-1.366-0.055-2.672-0.368-3.904-0.964c-1.944-0.939-3.437-2.36-4.481-4.249c-0.481-0.87-0.816-1.795-1.018-2.769
		C0.071,11.416,0,10.73,0,10.035z"/>
	<path fill-rule="evenodd" clip-rule="evenodd" fill="#EAF6FF" d="M9.889,19.887c-2.318-0.031-4.464-0.813-6.298-2.404
		c-1.608-1.395-2.646-3.141-3.138-5.211c-0.146-0.616-0.226-1.243-0.245-1.878c-0.07-2.336,0.584-4.449,1.997-6.311
		C3.556,2.304,5.321,1.12,7.48,0.531c0.612-0.167,1.235-0.269,1.868-0.307c2.475-0.146,4.705,0.525,6.66,2.049
		c1.829,1.426,3.001,3.287,3.539,5.542c0.147,0.619,0.227,1.249,0.244,1.885c0.068,2.508-0.686,4.74-2.289,6.667
		c-1.33,1.599-3.015,2.66-5.025,3.197c-0.536,0.144-1.081,0.234-1.634,0.281C10.561,19.871,10.279,19.881,9.889,19.887z"/>
	<path fill-rule="evenodd" clip-rule="evenodd" fill="#FFA400" d="M19.496,10.063c0.009,0.239-0.009,0.498-0.03,0.756
		c-0.057,0.678-0.18,1.344-0.377,1.995c-0.182,0.598-0.418,1.173-0.711,1.724c-0.283,0.532-0.613,1.033-0.994,1.501
		c-0.243,0.299-0.497,0.587-0.773,0.854c-0.27,0.26-0.554,0.503-0.851,0.732c-0.545,0.421-1.13,0.773-1.751,1.066
		c-0.43,0.202-0.873,0.368-1.329,0.503c-0.421,0.126-0.849,0.218-1.282,0.284c-0.18,0.028-0.361,0.046-0.543,0.063
		c-0.359,0.034-0.72,0.047-1.081,0.038c-0.297-0.008-0.594-0.03-0.89-0.065c-0.411-0.049-0.816-0.122-1.217-0.224
		c-0.492-0.124-0.97-0.288-1.436-0.491c-0.568-0.247-1.107-0.547-1.617-0.899C4.336,17.707,4.07,17.5,3.815,17.278
		c-0.221-0.19-0.437-0.387-0.637-0.599c-0.248-0.262-0.483-0.535-0.704-0.82c-0.28-0.364-0.531-0.746-0.756-1.146
		c-0.22-0.39-0.41-0.794-0.571-1.212c-0.156-0.403-0.286-0.815-0.384-1.237c-0.076-0.321-0.136-0.645-0.177-0.973
		c-0.035-0.279-0.056-0.56-0.072-0.841C0.5,10.208,0.498,9.964,0.508,9.722c0.02-0.484,0.07-0.965,0.159-1.442
		c0.136-0.721,0.35-1.417,0.645-2.088c0.238-0.542,0.524-1.058,0.858-1.546c0.205-0.3,0.427-0.586,0.666-0.86
		c0.182-0.21,0.369-0.416,0.57-0.607C3.671,2.925,3.949,2.685,4.241,2.46C4.78,2.044,5.358,1.694,5.973,1.403
		C6.482,1.162,7.009,0.97,7.554,0.825C7.9,0.732,8.25,0.659,8.603,0.607c0.18-0.027,0.361-0.046,0.543-0.063
		c0.359-0.034,0.72-0.047,1.081-0.038c0.297,0.008,0.594,0.03,0.89,0.065c0.411,0.048,0.816,0.123,1.217,0.224
		c0.492,0.124,0.97,0.288,1.436,0.491c0.568,0.247,1.107,0.547,1.617,0.9c0.277,0.192,0.543,0.4,0.799,0.621
		c0.216,0.186,0.426,0.378,0.623,0.584c0.267,0.279,0.518,0.572,0.752,0.879c0.402,0.529,0.743,1.095,1.026,1.695
		c0.239,0.505,0.43,1.028,0.576,1.567c0.091,0.334,0.164,0.672,0.218,1.014c0.033,0.214,0.06,0.429,0.076,0.646
		C19.479,9.475,19.499,9.758,19.496,10.063z"/>
	<path fill-rule="evenodd" clip-rule="evenodd" fill="#2A2A72" d="M19.191,10.031c-0.013,0.479-0.039,0.941-0.108,1.401
		c-0.112,0.74-0.31,1.456-0.595,2.146c-0.318,0.768-0.73,1.481-1.242,2.137c-0.18,0.23-0.37,0.45-0.567,0.665
		c-0.036,0.04-0.058,0.042-0.098,0.002c-0.468-0.466-0.936-0.933-1.409-1.394c-0.422-0.41-0.832-0.833-1.256-1.242
		c-0.378-0.365-0.744-0.743-1.122-1.109c-0.437-0.422-0.859-0.858-1.296-1.28c-0.404-0.393-0.8-0.794-1.2-1.19
		c-0.042-0.041-0.123-0.068-0.115-0.127c0.007-0.045,0.074-0.083,0.115-0.123c0.803-0.801,1.602-1.605,2.408-2.401
		c0.919-0.907,1.826-1.826,2.746-2.732c0.374-0.368,0.743-0.739,1.115-1.108c0.035-0.036,0.053-0.033,0.085,0.002
		c0.308,0.325,0.59,0.67,0.849,1.035C17.765,5.084,18,5.476,18.204,5.885c0.272,0.546,0.493,1.112,0.653,1.701
		c0.09,0.331,0.163,0.664,0.217,1.001c0.034,0.214,0.059,0.43,0.077,0.646C19.173,9.504,19.18,9.774,19.191,10.031z"/>
	<path fill-rule="evenodd" clip-rule="evenodd" fill="#2A2A72" d="M0.809,10.046c0.013-0.472,0.04-0.935,0.109-1.396
		c0.127-0.84,0.364-1.646,0.715-2.42C1.96,5.509,2.369,4.84,2.869,4.225c0.14-0.172,0.289-0.337,0.436-0.504
		C3.339,3.683,3.358,3.682,3.396,3.72C3.823,4.145,4.252,4.568,4.68,4.992c0.458,0.453,0.913,0.91,1.375,1.359
		c0.403,0.391,0.793,0.794,1.197,1.184c0.412,0.397,0.81,0.81,1.222,1.208c0.407,0.393,0.803,0.797,1.205,1.195
		c0.036,0.035,0.102,0.055,0.1,0.108c-0.002,0.047-0.064,0.068-0.098,0.102c-0.833,0.833-1.664,1.669-2.502,2.496
		c-0.905,0.893-1.797,1.797-2.703,2.688c-0.354,0.348-0.704,0.699-1.056,1.049c-0.043,0.043-0.064,0.038-0.103-0.003
		c-0.43-0.463-0.815-0.96-1.144-1.499c-0.324-0.531-0.593-1.089-0.807-1.674c-0.183-0.501-0.319-1.014-0.413-1.538
		c-0.049-0.272-0.083-0.548-0.105-0.824C0.828,10.575,0.819,10.306,0.809,10.046z"/>
	<path fill-rule="evenodd" clip-rule="evenodd" fill="#EAF6FF" d="M9.494,16.878c0,0.307,0.002,0.612-0.001,0.919
		c0,0.053,0.013,0.071,0.069,0.07c0.501-0.002,1.002-0.002,1.502,0c0.052,0.001,0.074-0.019,0.094-0.062
		c0.116-0.246,0.235-0.492,0.354-0.738c0.026-0.056,0.1-0.095,0.157-0.087c0.033,0.004,0.024,0.03,0.023,0.048
		c-0.005,0.1-0.011,0.198-0.017,0.298c-0.014,0.229-0.025,0.457-0.043,0.686c-0.015,0.199,0.003,0.178-0.178,0.174
		c-0.93-0.021-1.859-0.004-2.789-0.009c-0.092,0-0.185,0.009-0.277,0.012c-0.027,0.001-0.069,0.014-0.065-0.035
		c0.003-0.046-0.057-0.11,0.038-0.136c0.109-0.028,0.217-0.064,0.325-0.096c0.104-0.029,0.136-0.069,0.136-0.178
		c0-1.285,0-2.569,0-3.854c0-0.146-0.016-0.167-0.158-0.211c-0.101-0.031-0.203-0.062-0.304-0.094
		c-0.042-0.014-0.074-0.126-0.046-0.159c0.016-0.019,0.039-0.012,0.059-0.011c0.097,0.004,0.194,0.012,0.292,0.012
		c0.772,0.002,1.544,0.002,2.316,0c0.178,0,0.356-0.009,0.534-0.013c0.084-0.002,0.094,0.011,0.078,0.092
		c-0.059,0.311-0.121,0.62-0.176,0.932c-0.012,0.066-0.059,0.055-0.096,0.064c-0.044,0.011-0.061-0.018-0.07-0.057
		c-0.058-0.214-0.118-0.427-0.174-0.642c-0.013-0.048-0.029-0.067-0.083-0.067c-0.478,0.003-0.955,0.003-1.433,0
		c-0.057,0-0.069,0.018-0.069,0.071c0.002,0.574,0.002,1.149,0,1.725c0,0.052,0.013,0.067,0.065,0.067
		c0.33-0.003,0.659-0.001,0.988-0.001c0.097-0.001,0.138-0.031,0.163-0.126c0.031-0.115,0.063-0.231,0.088-0.349
		c0.014-0.063,0.037-0.089,0.105-0.084c0.106,0.007,0.11,0.002,0.104,0.105c-0.021,0.313-0.005,0.625-0.009,0.938
		c-0.001,0.097,0.005,0.194,0.01,0.291c0.002,0.041-0.006,0.068-0.055,0.064c-0.009-0.001-0.019,0.005-0.027,0.006
		c-0.103,0.016-0.103,0.015-0.129-0.088c-0.028-0.114-0.059-0.229-0.09-0.342c-0.026-0.092-0.065-0.121-0.16-0.121
		c-0.329,0-0.658,0.001-0.987-0.001c-0.053-0.001-0.066,0.015-0.066,0.066C9.496,16.267,9.494,16.573,9.494,16.878z"/>
	<path fill-rule="evenodd" clip-rule="evenodd" fill="#EAF6FF" d="M10.287,4.497c0,0.599,0.001,1.197,0,1.795
		c0,0.088,0.009,0.175,0.013,0.263c0.003,0.054,0.027,0.084,0.079,0.1c0.148,0.044,0.296,0.089,0.443,0.135
		c0.048,0.014,0.094,0.123,0.066,0.162c-0.016,0.022-0.043,0.012-0.065,0.011c-0.321-0.017-0.644-0.011-0.966-0.014
		C9.61,6.945,9.362,6.956,9.114,6.961C9.082,6.962,9.029,6.98,9.033,6.918c0.003-0.047-0.035-0.11,0.057-0.131
		c0.141-0.033,0.278-0.08,0.418-0.123c0.084-0.025,0.105-0.059,0.107-0.146c0.023-1.307,0.01-2.615,0.016-3.922
		c0-0.07-0.017-0.089-0.088-0.088c-0.35,0.004-0.7,0.003-1.05,0c-0.053,0-0.077,0.017-0.093,0.067
		c-0.085,0.26-0.176,0.517-0.259,0.777C8.12,3.421,8.069,3.419,8.019,3.427C7.995,3.431,7.992,3.411,7.986,3.392
		C7.962,3.313,7.973,3.23,7.964,3.15C7.946,2.988,7.942,2.823,7.932,2.66C7.923,2.533,7.911,2.406,7.905,2.28
		C7.901,2.187,7.904,2.185,7.997,2.187c1.198,0.029,2.396,0.006,3.595,0.013c0.128,0,0.255-0.01,0.382-0.013
		c0.08-0.002,0.083,0.004,0.069,0.082c-0.062,0.349-0.121,0.698-0.186,1.046c-0.007,0.033,0.013,0.086-0.05,0.1
		c-0.103,0.022-0.104,0.024-0.128-0.082c-0.058-0.249-0.115-0.498-0.171-0.747c-0.013-0.053-0.029-0.079-0.094-0.078
		c-0.348,0.004-0.695,0.004-1.043,0c-0.074-0.001-0.086,0.023-0.086,0.09C10.288,3.231,10.287,3.864,10.287,4.497z"/>
	<path fill-rule="evenodd" clip-rule="evenodd" fill="#EAF6FF" d="M16.361,7.281c0.349,0.009,0.692,0.054,1.033,0.128
		c0.049,0.011,0.069,0.032,0.059,0.086c-0.067,0.336-0.132,0.672-0.195,1.009c-0.014,0.073-0.073,0.039-0.11,0.053
		c-0.04,0.016-0.04-0.025-0.048-0.05c-0.072-0.258-0.146-0.517-0.218-0.775c-0.007-0.026-0.007-0.054-0.044-0.063
		c-0.414-0.098-0.831-0.146-1.25-0.032c-0.506,0.137-0.84,0.473-1.055,0.937c-0.196,0.423-0.236,0.873-0.205,1.331
		c0.023,0.343,0.103,0.673,0.274,0.974c0.304,0.534,0.766,0.835,1.37,0.923c0.502,0.073,0.987-0.002,1.465-0.155
		c0.021-0.007,0.06-0.048,0.07,0.001c0.012,0.049,0.067,0.105-0.007,0.154c-0.252,0.164-0.522,0.289-0.817,0.354
		c-0.618,0.138-1.228,0.112-1.807-0.161c-0.683-0.322-1.093-0.871-1.236-1.611c-0.107-0.556-0.081-1.109,0.139-1.638
		c0.289-0.698,0.827-1.122,1.538-1.339C15.638,7.309,15.958,7.276,16.361,7.281z"/>
	<path fill-rule="evenodd" clip-rule="evenodd" fill="#EAF6FF" d="M5.391,8.167C5.302,8.404,5.213,8.642,5.125,8.88
		c-0.395,1.058-0.789,2.116-1.182,3.174c-0.017,0.047-0.043,0.057-0.085,0.063c-0.154,0.023-0.153,0.024-0.207-0.119
		C3.182,10.74,2.714,9.482,2.245,8.224C2.237,8.201,2.228,8.179,2.206,8.158c0,0.024,0,0.048,0,0.072c0,1.046,0,2.092,0.001,3.138
		c0,0.118,0.006,0.236,0.006,0.354c0,0.073,0.032,0.115,0.102,0.138c0.09,0.028,0.179,0.063,0.268,0.095
		c0.038,0.014,0.07,0.134,0.042,0.16c-0.017,0.017-0.04,0.007-0.06,0.007c-0.248-0.008-0.496-0.015-0.744-0.009
		c-0.116,0.002-0.232,0.006-0.348,0.009c-0.03,0.001-0.066,0.007-0.062-0.04c0.004-0.041-0.039-0.098,0.036-0.121
		c0.102-0.032,0.201-0.07,0.303-0.102c0.072-0.023,0.103-0.066,0.104-0.144C1.868,10.6,1.86,9.485,1.861,8.37
		c0-0.2-0.006-0.399-0.007-0.599c0-0.078-0.031-0.125-0.107-0.148c-0.1-0.031-0.196-0.071-0.294-0.104
		C1.372,7.491,1.413,7.424,1.41,7.377c-0.002-0.049,0.046-0.025,0.07-0.024c0.338,0.013,0.677,0.02,1.015-0.003
		c0.06-0.004,0.068,0.029,0.083,0.069c0.445,1.195,0.89,2.39,1.335,3.584c0.007,0.019,0.015,0.038,0.028,0.071
		c0.014-0.033,0.023-0.055,0.032-0.076c0.444-1.193,0.888-2.386,1.33-3.579c0.021-0.057,0.047-0.072,0.104-0.068
		c0.32,0.021,0.64,0.014,0.959,0c0.027-0.001,0.072-0.021,0.07,0.036C6.434,7.436,6.482,7.497,6.393,7.523
		C6.291,7.552,6.192,7.594,6.091,7.627C6.027,7.648,5.999,7.69,5.998,7.756C5.996,7.912,5.99,8.067,5.99,8.223
		c0,1.053,0,2.105,0,3.158c0,0.114,0.006,0.228,0.006,0.341c0,0.065,0.029,0.104,0.089,0.125c0.103,0.035,0.206,0.071,0.308,0.107
		c0.039,0.015,0.074,0.127,0.047,0.159c-0.015,0.019-0.039,0.009-0.059,0.009c-0.322-0.009-0.645-0.014-0.967-0.009
		c-0.123,0.002-0.246,0.006-0.369,0.009c-0.029,0.001-0.06,0.005-0.056-0.038s-0.043-0.1,0.026-0.126
		c0.088-0.034,0.179-0.063,0.269-0.094c0.096-0.033,0.113-0.057,0.114-0.155c0.002-0.195,0.005-0.39,0.005-0.584
		c0-0.965,0-1.93,0-2.895c0-0.021,0-0.041,0-0.062C5.401,8.167,5.396,8.167,5.391,8.167z"/>
</g>
</svg>
